<svg width="32" height="32" viewBox="0 0 32 32" fill="none" xmlns="http://www.w3.org/2000/svg">
<path d="M6.43652 24.2422C7.75488 24.2422 8.64258 23.7412 9.43359 22.8359L10.998 21.0166C11.2178 20.7529 11.4463 20.6387 11.7188 20.6387H20.042C20.3145 20.6387 20.543 20.7529 20.7627 21.0166L22.3271 22.8359C23.1182 23.7412 24.0146 24.2422 25.3242 24.2422C27.3545 24.2422 28.7607 22.8975 28.7607 20.7529C28.7607 19.8301 28.5586 18.7842 28.2158 17.624C27.6709 15.8047 26.7305 13.3525 25.834 11.4629C25.0693 9.86328 24.6562 9.08105 22.7227 8.6416C21.0264 8.25488 18.7061 8 15.8848 8C13.0635 8 10.7344 8.25488 9.03809 8.6416C7.11328 9.08105 6.69141 9.86328 5.92676 11.4629C5.03027 13.3525 4.08984 15.8047 3.54492 17.624C3.20215 18.7842 3 19.8301 3 20.7529C3 22.8975 4.40625 24.2422 6.43652 24.2422ZM8.7041 14.4072C8.7041 13.9326 9.01172 13.625 9.50391 13.625H10.9805V12.2012C10.9805 11.709 11.2793 11.3926 11.7627 11.3926C12.2373 11.3926 12.5361 11.709 12.5361 12.2012V13.625H13.9248C14.4609 13.625 14.7861 13.9326 14.7861 14.4072C14.7861 14.8994 14.4609 15.207 13.9248 15.207H12.5361V16.6396C12.5361 17.1318 12.2373 17.4482 11.7627 17.4482C11.2793 17.4482 10.9805 17.1318 10.9805 16.6396V15.207H9.50391C9.01172 15.207 8.7041 14.8994 8.7041 14.4072ZM19.998 13.0273C19.998 12.2891 20.5693 11.7178 21.2988 11.7178C22.0371 11.7178 22.5996 12.2891 22.5996 13.0273C22.5996 13.7656 22.0371 14.3281 21.2988 14.3281C20.5693 14.3281 19.998 13.7656 19.998 13.0273ZM17.3877 15.6729C17.3877 14.9346 17.959 14.3633 18.6885 14.3633C19.418 14.3633 19.9893 14.9346 19.9893 15.6729C19.9893 16.4023 19.418 16.9648 18.6885 16.9648C17.959 16.9648 17.3877 16.4023 17.3877 15.6729Z" fill="#0071E3"/>
</svg>
