<svg width="32" height="32" viewBox="0 0 32 32" fill="none" xmlns="http://www.w3.org/2000/svg">
<path d="M13.5074 5.17722C13.3311 5.29921 13.1198 5.36835 12.906 5.3836C11.0779 5.51394 8.62461 6.81749 9.55008 13.0215C9.56513 13.121 9.58482 13.2287 9.60508 13.3439C9.743 14.1052 9.93837 15.1871 9.2221 16.2212C8.84789 16.7614 8.7996 17.5422 9.351 17.8997C10.1965 18.4479 11.2009 18.9465 12.3365 19.2864C12.8544 19.4415 13.2067 19.9479 13.082 20.474C13.0466 20.6235 13.009 20.7726 12.9693 20.921C12.8008 21.5393 12.4477 21.9776 11.8166 22.1646C11.2608 22.329 10.6784 22.4622 10.0821 22.5988C9.9287 22.6335 9.77413 22.6688 9.61897 22.7053C8.87504 22.8784 8.11663 23.07 7.44449 23.341C6.77061 23.6131 6.1442 23.9796 5.69147 24.5261C5.23064 25.0836 4.98402 25.7864 5.0008 26.6652C5.00659 26.9385 5.24048 27.1573 5.52764 27.1573H26.4724C26.7595 27.1573 26.9934 26.9385 26.9992 26.6652C27.016 25.7864 26.7699 25.0836 26.3085 24.5261C25.8564 23.9796 25.2294 23.6125 24.5561 23.341C23.8834 23.0695 23.125 22.8778 22.3804 22.7047L21.9185 22.5988C21.3216 22.4622 20.7392 22.329 20.1834 22.1646C19.5523 21.9776 19.1992 21.5393 19.0307 20.921C18.9585 20.652 18.8935 20.381 18.8358 20.1085C18.7327 19.6209 19.0363 19.1507 19.5025 18.9746C20.8409 18.4692 22.2435 17.6881 23.6908 16.5572C23.6956 16.5534 23.696 16.5463 23.6917 16.542C22.8702 15.7558 21.3303 14.2818 21.2208 10.7827C21.2208 6.0543 18.262 1.88796 13.5074 5.17722Z" fill="#0071E3"/>
</svg>
