<svg width="32" height="32" viewBox="0 0 32 32" fill="none" xmlns="http://www.w3.org/2000/svg">
<path d="M9.56836 8.08301H22.3652V7.95117C22.3652 6.62402 21.3018 6 19.8252 6H12.1172C10.7021 6 9.56836 6.62402 9.56836 7.95117V8.08301ZM8.75977 21.8643H8.92676V17.0918C8.92676 15.7383 9.71777 14.9385 11.0801 14.9385H20.8535C22.2158 14.9385 23.0156 15.7383 23.0156 17.0918V21.8643H23.1826C24.9668 21.8643 25.9424 20.9326 25.9424 19.1396V12.0732C25.9424 10.2803 24.9668 9.34863 23.1826 9.34863H8.75977C7.03711 9.34863 6 10.2803 6 12.0732V19.1396C6 20.9326 6.9668 21.8643 8.75977 21.8643ZM20.1504 12.3984C20.1504 11.7744 20.6865 11.2295 21.3281 11.2295C21.9609 11.2295 22.4971 11.7744 22.4971 12.3984C22.4971 13.0488 21.9609 13.5586 21.3281 13.5674C20.6865 13.5674 20.1504 13.0488 20.1504 12.3984ZM10.21 24.0439C10.21 24.7646 10.6846 25.2393 11.4053 25.2393H20.5283C21.249 25.2393 21.7236 24.7646 21.7236 24.0439V17.0918C21.7236 16.5732 21.3809 16.2305 20.8535 16.2305H11.0801C10.5615 16.2305 10.21 16.5732 10.21 17.0918V24.0439ZM13.2334 19.79C12.873 19.79 12.6094 19.5176 12.6094 19.166C12.6094 18.832 12.873 18.5596 13.2334 18.5596H18.7354C19.0781 18.5596 19.3418 18.832 19.3418 19.166C19.3418 19.5176 19.0781 19.79 18.7354 19.79H13.2334ZM13.2334 22.9014C12.873 22.9014 12.6094 22.6377 12.6094 22.2949C12.6094 21.9434 12.873 21.6709 13.2334 21.6709H18.7354C19.0781 21.6709 19.3418 21.9434 19.3418 22.2949C19.3418 22.6377 19.0781 22.9014 18.7354 22.9014H13.2334Z" fill="#0071E3"/>
</svg>
