<svg width="32" height="32" viewBox="0 0 32 32" fill="none" xmlns="http://www.w3.org/2000/svg">
<path d="M26.2476 7.26061C24.3116 6.62591 19.3 4.98362 19.3 5.00012C19.3 5.87533 18.9523 6.7147 18.3335 7.33356C17.7146 7.95243 16.8752 8.30011 16 8.30011C15.1248 8.30011 14.2854 7.95243 13.6666 7.33356C13.0477 6.7147 12.7 5.87533 12.7 5.00012C12.7 4.98362 7.68841 6.62591 5.75131 7.26061C5.53184 7.33255 5.34086 7.47227 5.20585 7.65966C5.07084 7.84705 4.99877 8.07245 5.00002 8.3034V12.391C5.00006 12.5581 5.03817 12.7229 5.11145 12.8731C5.18473 13.0233 5.29126 13.1548 5.42294 13.2576C5.55463 13.3605 5.70801 13.4319 5.87145 13.4667C6.03489 13.5014 6.20409 13.4984 6.36621 13.458L9.40001 12.7001V25.9C9.40001 26.1917 9.5159 26.4715 9.72219 26.6778C9.92848 26.8841 10.2083 27 10.5 27H21.5C21.7917 27 22.0715 26.8841 22.2778 26.6778C22.4841 26.4715 22.6 26.1917 22.6 25.9V12.7001L25.6338 13.458C25.7959 13.4984 25.9651 13.5014 26.1286 13.4667C26.292 13.4319 26.4454 13.3605 26.5771 13.2576C26.7087 13.1548 26.8153 13.0233 26.8886 12.8731C26.9618 12.7229 26.9999 12.5581 27 12.391V8.3034C27.0012 8.07231 26.9289 7.84681 26.7937 7.65941C26.6585 7.472 26.4673 7.33236 26.2476 7.26061Z" fill="#0071E3"/>
</svg>
