<svg width="32" height="32" viewBox="0 0 32 32" fill="none" xmlns="http://www.w3.org/2000/svg">
<path d="M23.0138 7.33631C22.5655 7.6615 17.6964 10.9838 14.6642 13.6644C16.7384 14.3412 18.3556 15.9496 19.0323 18.0414C21.7218 15.0004 25.044 10.14 25.3692 9.68298C26.4767 8.10974 24.5431 6.22009 23.0138 7.33631ZM14.6554 18.0414C15.3321 18.7181 15.8243 19.597 15.9737 20.3617C16.6417 20.2386 17.1954 19.931 17.7579 19.3861C17.8546 19.2982 17.9425 19.2103 18.0304 19.1136C17.6788 16.89 15.798 15.0092 13.5919 14.6664C13.4952 14.7455 13.3985 14.8422 13.3106 14.9388C12.7657 15.5013 12.4493 16.0726 12.3439 16.7406C13.0909 16.8724 13.9786 17.3558 14.6554 18.0414ZM6.30576 23.2094C7.91416 25.3363 11.254 25.9691 13.3546 24.3783C15.1388 23.0424 15.4464 21.0121 14.1632 19.3158C13.003 17.7777 11.0167 17.3998 9.69834 18.4193C8.29209 19.4828 8.85459 20.8451 8.02842 21.4603C7.31651 22.0053 6.71885 21.6537 6.26182 21.9965C5.90147 22.2689 5.91026 22.7084 6.30576 23.2094Z" fill="#0071E3"/>
</svg>
