<svg width="32" height="32" viewBox="0 0 32 32" fill="none" xmlns="http://www.w3.org/2000/svg">
<path d="M7.77734 25.2041H17.2344C17.2168 25.0898 17.1992 24.9756 17.1904 24.8525L16.2764 15.3955C16.1533 14.0332 17.085 12.9521 18.4385 12.9521H20.8203C20.8027 12.4688 20.7236 12.2402 20.4775 11.9062L18.7637 9.63867V8.11816C18.7637 6.75586 17.9727 6 16.5576 6H9.28906C7.87402 6 7.08301 6.75586 7.08301 8.11816V9.63867L5.36914 11.9062C5.08789 12.3018 5 12.5918 5 13.2422V22.4531C5 24.2725 5.94922 25.2041 7.77734 25.2041ZM10.5635 9.50684C10.2383 9.50684 9.96582 9.22559 9.96582 8.8916C9.96582 8.56641 10.2383 8.28516 10.5635 8.28516H15.2656C15.5908 8.28516 15.8633 8.56641 15.8633 8.8916C15.8633 9.22559 15.5908 9.50684 15.2656 9.50684H10.5635ZM20.4863 26.7246H24.4941C25.751 26.7246 26.3838 26.0918 26.5156 24.7207L27.4297 15.2725C27.4912 14.6484 27.1309 14.2354 26.5332 14.2354H23.29L23.3164 13.8662C23.3516 13.4443 23.4658 13.207 23.7646 12.9961L26.709 10.8867C27.4648 10.3418 26.6562 9.18164 25.8477 9.77051L23.0264 11.8096C22.3232 12.3193 22.0156 12.8818 21.9365 13.7783L21.9014 14.2354H18.4385C17.8496 14.2354 17.4893 14.6572 17.5508 15.2725L18.4648 24.7207C18.5967 26.0918 19.2207 26.7246 20.4863 26.7246Z" fill="#0071E3"/>
</svg>
